<?xml version="1.0" encoding="UTF-8" standalone="no"?>
<!-- Created with Inkscape (http://www.inkscape.org/) -->

<svg
   xmlns:dc="http://purl.org/dc/elements/1.1/"
   xmlns:cc="http://creativecommons.org/ns#"
   xmlns:rdf="http://www.w3.org/1999/02/22-rdf-syntax-ns#"
   xmlns:svg="http://www.w3.org/2000/svg"
   xmlns="http://www.w3.org/2000/svg"
   xmlns:sodipodi="http://sodipodi.sourceforge.net/DTD/sodipodi-0.dtd"
   xmlns:inkscape="http://www.inkscape.org/namespaces/inkscape"
   width="4.1300001mm"
   height="4.1399999mm"
   viewBox="0 0 4.1300001 4.1399999"
   version="1.1"
   id="svg8"
   inkscape:version="0.92.3 (2405546, 2018-03-11)"
   sodipodi:docname="favicon.svg">
  <defs
     id="defs2" />
  <sodipodi:namedview
     id="base"
     pagecolor="#ffffff"
     bordercolor="#666666"
     borderopacity="1.0"
     inkscape:pageopacity="0.0"
     inkscape:pageshadow="2"
     inkscape:zoom="11.2"
     inkscape:cx="27.457463"
     inkscape:cy="-4.9704546"
     inkscape:document-units="mm"
     inkscape:current-layer="layer1"
     showgrid="false"
     inkscape:window-width="1366"
     inkscape:window-height="719"
     inkscape:window-x="0"
     inkscape:window-y="25"
     inkscape:window-maximized="1" />
  <metadata
     id="metadata5">
    <rdf:RDF>
      <cc:Work
         rdf:about="">
        <dc:format>image/svg+xml</dc:format>
        <dc:type
           rdf:resource="http://purl.org/dc/dcmitype/StillImage" />
        <dc:title></dc:title>
      </cc:Work>
    </rdf:RDF>
  </metadata>
  <g
     inkscape:label="Layer 1"
     inkscape:groupmode="layer"
     id="layer1"
     transform="translate(0,-292.86)">
    <path
       id="path3067"
       style="fill:#000000;stroke-width:0.00566438"
       d="m 1.9462889,294.45834 c -0.01657,-0.002 -0.045824,-0.005 -0.065009,-0.008 -0.1356,-0.0195 -0.2739224,-0.0731 -0.367813,-0.14251 -0.089433,-0.0661 -0.1483769,-0.14688 -0.1719174,-0.2355 -0.011487,-0.0433 -0.012057,-0.10932 -0.0013,-0.15098 0.00398,-0.0154 0.00675,-0.0284 0.00617,-0.0289 -5.846e-4,-5e-4 -0.067723,-0.0395 -0.149197,-0.0866 l -0.1481343,-0.0857 -0.23331716,0.13469 -0.23331723,0.13469 -0.086298,-0.0498 c -0.0474639,-0.0274 -0.0868346,-0.0503 -0.0874902,-0.0509 -0.003616,-0.003 0.0776079,-0.12028 0.12586875,-0.18124 0.10167585,-0.12845 0.23904312,-0.2619 0.36972779,-0.3592 0.49806765,-0.37083 1.14210095,-0.48436 1.73810845,-0.3064 0.173824,0.0519 0.3532481,0.1353 0.5073893,0.23582 0.1628805,0.10622 0.3144288,0.24113 0.4408588,0.39244 0.050305,0.0602 0.1606841,0.21451 0.1564646,0.21873 -0.00633,0.006 -0.1733372,0.0997 -0.1762981,0.0985 -0.00215,-8.2e-4 -0.338149,-0.19444 -0.7466536,-0.43026 -0.4085046,-0.23581 -0.7444334,-0.42875 -0.7465084,-0.42875 -0.00331,0 -0.5094733,0.29035 -0.5159722,0.29598 -0.00138,0.001 0.048541,0.0312 0.1109448,0.0666 l 0.1134622,0.0644 0.042858,-0.008 c 0.058566,-0.0113 0.079095,-0.0141 0.137993,-0.0183 0.1779576,-0.0127 0.3718392,0.0272 0.5137123,0.10578 0.1253495,0.0694 0.2080909,0.1631 0.2414761,0.2734 0.00801,0.0265 0.00864,0.0327 0.00872,0.0856 7.25e-5,0.0532 -5.081e-4,0.059 -0.00859,0.0856 -0.023832,0.0785 -0.071029,0.14706 -0.1419113,0.20612 -0.1046867,0.0872 -0.2502037,0.14571 -0.4183792,0.16816 -0.043688,0.006 -0.1734912,0.009 -0.2156404,0.005 z m 0.1990802,2.34017 c -6.752e-4,-0.0755 3.96e-5,-0.0993 0.00306,-0.10184 0.00334,-0.003 0.1207927,-0.0714 0.1657212,-0.0969 0.055044,-0.0312 0.3678361,-0.21209 0.3741995,-0.21642 0.00436,-0.003 0.019344,-0.0115 0.033298,-0.019 0.013953,-0.007 0.02751,-0.0152 0.030126,-0.0171 0.005,-0.004 0.010796,-0.007 0.034633,-0.0202 0.00799,-0.004 0.027364,-0.0155 0.043061,-0.0247 0.015697,-0.009 0.098465,-0.057 0.1839286,-0.10631 0.16941,-0.0977 0.2180401,-0.12577 0.2758929,-0.15934 0.02093,-0.0122 0.045903,-0.0264 0.055496,-0.0317 0.00959,-0.005 0.022886,-0.013 0.02954,-0.0172 0.00665,-0.004 0.016805,-0.0102 0.022556,-0.0134 0.00575,-0.003 0.013864,-0.008 0.018028,-0.0101 0.00416,-0.002 0.00828,-0.005 0.00916,-0.006 8.721e-4,-8.7e-4 0.00729,-0.005 0.01427,-0.008 0.012581,-0.007 0.1156844,-0.0657 0.1720366,-0.0987 l 0.029333,-0.0172 v -0.29933 -0.29933 l -0.022991,0.0141 c -0.012645,0.008 -0.026559,0.0159 -0.030919,0.0181 -0.00897,0.004 -0.06744,0.0383 -0.085096,0.0492 -0.00639,0.004 -0.014479,0.009 -0.017967,0.0103 -0.00349,0.002 -0.014336,0.008 -0.024106,0.0134 -0.00977,0.006 -0.031344,0.018 -0.047942,0.0275 l -0.030178,0.0172 -0.015058,0.043 c -0.00828,0.0237 -0.019325,0.0523 -0.024539,0.0637 -0.00521,0.0113 -0.00978,0.022 -0.010139,0.0238 -0.00271,0.0131 -0.059962,0.11422 -0.087949,0.15539 -0.020652,0.0304 -0.05873,0.0797 -0.077261,0.10002 -0.1340215,0.14716 -0.2773407,0.23036 -0.4296422,0.2494 -0.04614,0.006 -0.1276965,-0.005 -0.1640741,-0.0214 -0.00739,-0.003 -0.014901,-0.006 -0.016683,-0.006 -0.00178,0 -0.016316,-0.008 -0.032299,-0.018 -0.077455,-0.0479 -0.1295214,-0.12124 -0.159461,-0.22459 -0.00454,-0.0157 -0.00886,-0.0328 -0.0096,-0.038 -7.369e-4,-0.005 -0.0034,-0.0238 -0.00592,-0.0413 -0.00536,-0.0371 -0.00482,-0.13591 9.351e-4,-0.17283 0.018469,-0.11843 0.046757,-0.20758 0.0976,-0.30761 0.072329,-0.14229 0.1721512,-0.26263 0.2896793,-0.3492 0.065258,-0.0481 0.1594993,-0.0939 0.2184721,-0.10618 0.00427,-8.9e-4 0.01783,-0.004 0.030126,-0.006 0.071092,-0.0151 0.1583346,-0.006 0.2193247,0.0224 0.013197,0.006 0.025295,0.0112 0.026883,0.0112 0.00159,0 0.00289,10e-4 0.00289,0.003 0,0.002 0.00159,0.003 0.00354,0.003 0.00542,0 0.043662,0.0308 0.061609,0.0496 l 0.015995,0.0168 0.098168,-0.0558 c 0.053992,-0.0307 0.103162,-0.0587 0.1092666,-0.0622 0.0061,-0.004 0.017521,-0.01 0.02537,-0.0143 0.00785,-0.004 0.031751,-0.0178 0.053117,-0.0299 l 0.038847,-0.0219 v -0.27409 -0.2741 l 0.016649,-0.01 c 0.00916,-0.005 0.018789,-0.011 0.021405,-0.0126 0.00262,-0.002 0.032584,-0.0188 0.066595,-0.0382 0.034011,-0.0194 0.063547,-0.0367 0.065636,-0.0384 0.00277,-0.002 0.00702,0.003 0.015683,0.0201 0.00949,0.0186 0.046342,0.0954 0.061344,0.12789 0.00473,0.0102 0.012484,0.0302 0.012052,0.031 -2.187e-4,4e-4 0.00156,0.004 0.00395,0.009 0.00239,0.004 0.00462,0.009 0.00496,0.0111 3.353e-4,0.002 0.0038,0.011 0.00769,0.0206 0.0282,0.0695 0.074752,0.22346 0.086756,0.287 6.593e-4,0.003 0.00491,0.0256 0.00945,0.0491 0.00454,0.0235 0.010409,0.0571 0.013045,0.0745 0.00264,0.0174 0.00542,0.0353 0.00618,0.0396 0.00207,0.0119 0.00444,0.0335 0.00678,0.0618 0.00115,0.014 0.00319,0.0354 0.00455,0.0476 0.00327,0.0295 0.0032,0.2667 -8.22e-5,0.29492 -0.00142,0.0122 -0.00494,0.0443 -0.00782,0.0713 -0.00432,0.0405 -0.016547,0.12446 -0.021954,0.15063 -0.015821,0.0766 -0.028779,0.12922 -0.045284,0.18393 -0.00789,0.0262 -0.015705,0.0526 -0.017362,0.0587 -0.00166,0.006 -0.00489,0.0154 -0.00719,0.0206 -0.0023,0.005 -0.00659,0.0174 -0.00954,0.0269 -0.00295,0.01 -0.00664,0.0203 -0.00821,0.0238 -0.00156,0.003 -0.00846,0.0206 -0.015314,0.038 -0.047204,0.12005 -0.1125513,0.2464 -0.1817671,0.35143 -0.010138,0.0154 -0.018433,0.0292 -0.018433,0.0307 0,0.001 -0.00107,0.003 -0.00238,0.004 -0.00131,5.8e-4 -0.015119,0.0189 -0.03069,0.0407 -0.1166719,0.16336 -0.2854743,0.3322 -0.4473657,0.44748 -0.1966841,0.14006 -0.3918721,0.23444 -0.6152095,0.29749 -0.085245,0.0241 -0.1960587,0.0474 -0.2647938,0.0559 -0.0061,7.5e-4 -0.017521,0.002 -0.02537,0.003 -0.00785,0.001 -0.018551,0.002 -0.023784,0.003 -0.00523,4.7e-4 -0.018076,0.002 -0.028541,0.003 -0.02477,0.002 -0.1053402,0.008 -0.1164525,0.008 l -0.00863,4e-5 -8.813e-4,-0.0986 z m -0.203837,0.095 c -0.3426383,-0.0239 -0.6711885,-0.13609 -0.95679468,-0.32676 -0.24215468,-0.16165 -0.44546989,-0.37454 -0.59464559,-0.62262 -0.0460297,-0.0765 -0.0757618,-0.13411 -0.12166421,-0.23552 -0.0124722,-0.0276 -0.0374895,-0.0925 -0.0532767,-0.13827 -0.0937402,-0.27184 -0.12673522,-0.56812 -0.0952198,-0.85504 0.0145385,-0.13236 0.0421584,-0.26127 0.082898,-0.38689 0.0175284,-0.0541 0.0497084,-0.14014 0.0651917,-0.17441 0.003546,-0.008 0.0136155,-0.0302 0.0223767,-0.0496 0.0240452,-0.0533 0.0403644,-0.0839 0.0433067,-0.0813 0.001452,10e-4 0.001639,6.5e-4 4.1463e-4,-10e-4 -0.001224,-0.002 3.399e-5,-0.007 0.002798,-0.0115 l 0.005024,-0.008 0.0854867,0.0494 0.0854867,0.0494 v 0.866 0.866 l 0.20850531,0.12028 c 0.11467787,0.0661 0.2211741,0.12783 0.23665831,0.13707 0.0154841,0.009 0.0286842,0.0168 0.0293334,0.0168 6.492e-4,0 0.00118,-0.0805 0.00118,-0.17884 v -0.17884 l -0.0284288,-0.0379 c -0.0401187,-0.0534 -0.0692231,-0.10136 -0.10164911,-0.16732 -0.0952263,-0.1937 -0.1217337,-0.39281 -0.0743593,-0.55857 0.0118276,-0.0414 0.0445922,-0.10541 0.0703305,-0.13744 0.0934239,-0.11628 0.24312764,-0.15191 0.40672604,-0.0968 0.2545364,0.0857 0.4885574,0.3734 0.5533372,0.68021 0.054417,0.25773 -0.017938,0.4781 -0.1839148,0.56013 l -0.023661,0.0117 v 0.23052 0.23051 l 0.194235,0.112 c 0.1068291,0.0616 0.1981592,0.11472 0.2029557,0.11805 l 0.00872,0.006 v 0.0981 0.0981 l -0.016649,-4.5e-4 c -0.00916,-2.5e-4 -0.033773,-0.002 -0.054703,-0.003 z"
       inkscape:connector-curvature="0"
       inkscape:export-filename="/home/solo/fab17/vinyl_1.png"
       inkscape:export-xdpi="299.98209"
       inkscape:export-ydpi="299.98209" />
  </g>
</svg>
