<?xml version="1.0" encoding="UTF-8" standalone="no"?>
<!-- Created with Inkscape (http://www.inkscape.org/) -->

<svg
   xmlns:dc="http://purl.org/dc/elements/1.1/"
   xmlns:cc="http://creativecommons.org/ns#"
   xmlns:rdf="http://www.w3.org/1999/02/22-rdf-syntax-ns#"
   xmlns:svg="http://www.w3.org/2000/svg"
   xmlns="http://www.w3.org/2000/svg"
   xmlns:sodipodi="http://sodipodi.sourceforge.net/DTD/sodipodi-0.dtd"
   xmlns:inkscape="http://www.inkscape.org/namespaces/inkscape"
   version="1.1"
   id="svg64"
   width="32"
   height="32"
   viewBox="0 0 32 32"
   sodipodi:docname="logo.svg"
   inkscape:version="0.92.3 (2405546, 2018-03-11)">
  <metadata
     id="metadata70">
    <rdf:RDF>
      <cc:Work
         rdf:about="">
        <dc:format>image/svg+xml</dc:format>
        <dc:type
           rdf:resource="http://purl.org/dc/dcmitype/StillImage" />
        <dc:title></dc:title>
      </cc:Work>
    </rdf:RDF>
  </metadata>
  <defs
     id="defs68" />
  <sodipodi:namedview
     pagecolor="#ffffff"
     bordercolor="#666666"
     borderopacity="1"
     objecttolerance="10"
     gridtolerance="10"
     guidetolerance="10"
     inkscape:pageopacity="0"
     inkscape:pageshadow="2"
     inkscape:window-width="1366"
     inkscape:window-height="719"
     id="namedview66"
     showgrid="false"
     inkscape:zoom="2.9610097"
     inkscape:cx="60.028815"
     inkscape:cy="5.3805455"
     inkscape:window-x="0"
     inkscape:window-y="25"
     inkscape:window-maximized="1"
     inkscape:current-layer="svg64" />
  <path
     id="path3067"
     style="fill:#000000;stroke-width:0.04461333"
     d="m 14.745888,12.628003 c -0.1305,-0.01243 -0.36091,-0.04035 -0.51202,-0.06206 -1.068,-0.153436 -2.15745,-0.575543 -2.89694,-1.122424 -0.70439,-0.520918 -1.16863,-1.15689 -1.3540398,-1.8548918 -0.0905,-0.340615 -0.095,-0.860951 -0.0103,-1.189109 0.0313,-0.12132 0.0532,-0.223789 0.0486,-0.227709 -0.005,-0.0039 -0.5333998,-0.3108882 -1.1750898,-0.6821522 l -1.16673,-0.675025 -1.83763,1.060811 -1.83764,1.0608102 -0.67969,-0.391959 c -0.37383,-0.215578 -0.68392,-0.395839 -0.68908,-0.400582 -0.0285,-0.02615 0.61125,-0.9473242 0.99135,-1.4275002 0.80082,-1.011634 1.88274,-2.062743 2.91202,-2.829087 3.9228398,-2.92070501 8.9953298,-3.81489101 13.6895498,-2.413217 1.36906,0.408794 2.78223,1.065588 3.99626,1.857334 1.28287,0.836635 2.47648,1.899159 3.47226,3.090916 0.39621,0.474184 1.26556,1.6894922 1.23233,1.7227242 -0.0498,0.04985 -1.36522,0.785099 -1.38854,0.77615 -0.017,-0.0065 -2.6633,-1.5314622 -5.88074,-3.3887772 -3.21743,-1.857314 -5.86324,-3.376935 -5.87958,-3.376935 -0.026,0 -4.01268,2.286862 -4.06386,2.331165 -0.0109,0.0094 0.38231,0.245424 0.87381,0.524412 l 0.89364,0.50725 0.33755,-0.06535 c 0.46128,-0.0893 0.62297,-0.110698 1.08685,-0.143828 1.40162,-0.100101 2.92865,0.214335 4.04606,0.833138 0.98727,0.546731 1.63895,1.284555 1.9019,2.1532942 0.0631,0.208389 0.0681,0.257592 0.0687,0.674369 5.7e-4,0.419193 -0.004,0.464773 -0.0676,0.674369 -0.18771,0.6183328 -0.55944,1.1582358 -1.11771,1.6233708 -0.82453,0.686964 -1.97064,1.147638 -3.29521,1.324492 -0.34409,0.04594 -1.36643,0.06761 -1.69841,0.036 z m 1.56798,18.431433 c -0.005,-0.594845 3.1e-4,-0.782435 0.0241,-0.802134 0.0263,-0.0218 0.95138,-0.562663 1.30524,-0.763125 0.43353,-0.245595 2.89712,-1.670411 2.94724,-1.704536 0.0343,-0.02338 0.15236,-0.09068 0.26225,-0.149538 0.1099,-0.05886 0.21667,-0.119541 0.23728,-0.134844 0.0393,-0.02921 0.085,-0.0558 0.27277,-0.158719 0.0629,-0.03448 0.21552,-0.12193 0.33916,-0.194333 0.12363,-0.0724 0.77552,-0.449189 1.44864,-0.837311 1.33429,-0.769351 1.71731,-0.990558 2.17297,-1.254972 0.16484,-0.09566 0.36153,-0.208102 0.43709,-0.249875 0.0756,-0.04177 0.18025,-0.102763 0.23266,-0.135533 0.0524,-0.03277 0.13236,-0.0804 0.17766,-0.105846 0.0453,-0.02545 0.10919,-0.06137 0.14198,-0.07983 0.0328,-0.01846 0.0652,-0.03919 0.0721,-0.04606 0.007,-0.0069 0.0574,-0.03578 0.1124,-0.06425 0.0991,-0.05134 0.91114,-0.517208 1.35498,-0.777343 l 0.23103,-0.135412 V 21.1082 18.750623 l -0.18108,0.111233 c -0.0996,0.06118 -0.20918,0.125246 -0.24352,0.142371 -0.0707,0.03525 -0.53117,0.301457 -0.67023,0.387464 -0.0504,0.03115 -0.11403,0.06775 -0.14151,0.08133 -0.0275,0.01359 -0.11291,0.06116 -0.18986,0.105719 -0.077,0.04456 -0.24687,0.142004 -0.3776,0.216548 l -0.23768,0.135534 -0.1186,0.339022 c -0.0652,0.186462 -0.1522,0.412078 -0.19327,0.501369 -0.0411,0.08929 -0.077,0.173588 -0.0799,0.187325 -0.0213,0.102958 -0.47227,0.89963 -0.6927,1.223854 -0.16265,0.239241 -0.46256,0.627494 -0.60851,0.787752 -1.05557,1.15908 -2.18437,1.814344 -3.38391,1.96435 -0.3634,0.04544 -1.00576,-0.03847 -1.29227,-0.168809 -0.0582,-0.02649 -0.11736,-0.04817 -0.13139,-0.04817 -0.014,0 -0.12851,-0.06371 -0.25439,-0.141575 -0.61004,-0.377356 -1.02013,-0.954915 -1.25594,-1.768844 -0.0358,-0.123473 -0.0698,-0.258347 -0.0756,-0.299719 -0.006,-0.04137 -0.0268,-0.187617 -0.0466,-0.324988 -0.0422,-0.292186 -0.038,-1.07042 0.007,-1.361226 0.14547,-0.93272 0.36827,-1.634926 0.76872,-2.422732 0.56967,-1.120725 1.35588,-2.068501 2.28154,-2.750393 0.51398,-0.378623 1.25624,-0.739358 1.72072,-0.836261 0.0337,-0.007 0.14043,-0.02957 0.23727,-0.0501 0.55993,-0.118719 1.24707,-0.04855 1.72743,0.176411 0.10394,0.04868 0.19923,0.0885 0.21174,0.0885 0.0125,0 0.0228,0.01124 0.0228,0.02498 0,0.01374 0.0126,0.02498 0.0279,0.02498 0.0427,0 0.34388,0.242478 0.48523,0.390613 l 0.12598,0.132023 0.77318,-0.439277 c 0.42525,-0.241603 0.81252,-0.46194 0.8606,-0.489639 0.0481,-0.0277 0.138,-0.07852 0.19981,-0.112947 0.0618,-0.03442 0.25008,-0.140263 0.41836,-0.235203 l 0.30596,-0.172617 V 11.990696 9.8318892 l 0.13113,-0.07627 c 0.0721,-0.04195 0.14799,-0.08655 0.16859,-0.09912 0.0206,-0.01257 0.25664,-0.148049 0.52451,-0.301064 0.26788,-0.153015 0.50051,-0.289226 0.51696,-0.302691 0.0218,-0.01784 0.0553,0.0252 0.12351,0.158571 0.0747,0.146163 0.365,0.751284 0.48316,1.0072818 0.0372,0.08065 0.0983,0.23769 0.0949,0.243975 -0.002,0.0032 0.0123,0.03389 0.0311,0.06823 0.0188,0.03434 0.0364,0.07368 0.039,0.08742 0.003,0.01374 0.0299,0.08679 0.0606,0.162348 0.2221,0.547104 0.58876,1.760004 0.68331,2.260383 0.005,0.02747 0.0387,0.201686 0.0744,0.387138 0.0357,0.185451 0.082,0.449578 0.102743,0.58695 0.0208,0.137371 0.0427,0.277865 0.0487,0.312208 0.0163,0.09349 0.035,0.263742 0.0534,0.487043 0.009,0.109898 0.0252,0.27849 0.0358,0.37465 0.0257,0.232506 0.0252,2.100553 -6.5e-4,2.322824 -0.0112,0.09616 -0.0389,0.349049 -0.0616,0.561974 -0.034,0.319399 -0.130333,0.980265 -0.172913,1.186389 -0.12461,0.603185 -0.22667,1.017724 -0.35666,1.448644 -0.0622,0.206057 -0.12369,0.413988 -0.13674,0.462068 -0.013,0.04808 -0.0385,0.121136 -0.0566,0.162348 -0.0181,0.04121 -0.0519,0.136747 -0.0751,0.212301 -0.0232,0.07555 -0.0523,0.15985 -0.0647,0.187324 -0.0123,0.02747 -0.0666,0.162348 -0.12062,0.29972 -0.37178,0.945541 -0.88647,1.940638 -1.43162,2.76793 -0.0798,0.121173 -0.14518,0.229821 -0.14518,0.24144 0,0.01162 -0.008,0.02487 -0.0187,0.02945 -0.0103,0.0046 -0.11907,0.148819 -0.24172,0.320533 -0.91892,1.286598 -2.24842,2.616435 -3.5235,3.524387 -1.54911,1.10308 -3.08643,1.846451 -4.84546,2.343021 -0.6714,0.189533 -1.54418,0.373703 -2.08555,0.440078 -0.0481,0.0059 -0.138,0.01793 -0.19981,0.02674 -0.0618,0.0088 -0.14612,0.01906 -0.18733,0.02277 -0.0412,0.0037 -0.14237,0.01356 -0.22479,0.02189 -0.19509,0.0197 -0.82967,0.06457 -0.91719,0.06486 l -0.068,2.68e-4 -0.007,-0.776421 z m -1.60545,0.748419 c -2.69866,-0.188158 -5.2863598,-1.071901 -7.5358198,-2.57361 -1.90724,-1.273242 -3.50858,-2.949922 -4.6835,-4.90386 -0.36254,-0.602908 -0.59671,-1.056232 -0.95825,-1.855009 -0.0982,-0.217037 -0.29527,-0.728391 -0.41961,-1.088975 -0.73831003,-2.141062 -0.99818003,-4.474647 -0.74996003,-6.734454 0.11451,-1.042482 0.33204,-2.057725 0.65291003,-3.047146 0.13806,-0.425703 0.39151,-1.103797 0.51346,-1.373714 0.0279,-0.06182 0.10724,-0.2375448 0.17624,-0.3905078 0.18938,-0.41981 0.31792,-0.66095 0.34109,-0.639919 0.0114,0.01038 0.0129,0.0051 0.003,-0.01164 -0.01,-0.01678 2.7e-4,-0.05769 0.022,-0.0909 l 0.0396,-0.06039 0.6733,0.389111 0.67331,0.389111 v 6.8207258 6.820727 l 1.64221,0.947304 c 0.90322,0.521018 1.74199,1.006856 1.86395,1.079639 0.12195,0.07278 0.22592,0.132336 0.23103,0.132336 0.005,0 0.009,-0.633852 0.009,-1.40856 v -1.40856 l -0.22391,-0.298363 c -0.31598,-0.42105 -0.5452,-0.798383 -0.8006,-1.317865 -0.75001,-1.525574 -0.95879,-3.093835 -0.58566,-4.399334 0.0932,-0.325936 0.35121,-0.830268 0.55393,-1.082568 0.73582,-0.915791 1.9149,-1.196454 3.20343,-0.762523 2.0047498,0.675135 3.8479298,2.940937 4.3581398,5.357434 0.4286,2.029928 -0.14128,3.765527 -1.44853,4.411605 l -0.18636,0.0921 v 1.815574 1.815572 l 1.52982,0.882085 c 0.8414,0.485148 1.56073,0.903538 1.5985,0.929756 l 0.0687,0.04767 v 0.77257 0.772575 l -0.13112,-0.0036 c -0.0721,-0.002 -0.266,-0.01296 -0.43085,-0.02445 z"
     inkscape:connector-curvature="0"
     inkscape:export-filename="/home/solo/fab17/vinyl_1.png"
     inkscape:export-xdpi="299.98209"
     inkscape:export-ydpi="299.98209" />
</svg>
