<?xml version="1.0" encoding="UTF-8" standalone="no"?>
<!-- Created with Inkscape (http://www.inkscape.org/) -->

<svg
   xmlns:dc="http://purl.org/dc/elements/1.1/"
   xmlns:cc="http://creativecommons.org/ns#"
   xmlns:rdf="http://www.w3.org/1999/02/22-rdf-syntax-ns#"
   xmlns:svg="http://www.w3.org/2000/svg"
   xmlns="http://www.w3.org/2000/svg"
   xmlns:sodipodi="http://sodipodi.sourceforge.net/DTD/sodipodi-0.dtd"
   xmlns:inkscape="http://www.inkscape.org/namespaces/inkscape"
   width="17.965mm"
   height="6.6149998mm"
   viewBox="0 0 17.965 6.6149998"
   version="1.1"
   id="svg8"
   inkscape:version="0.92.4 (33fec40, 2019-01-16)"
   sodipodi:docname="complete logo.svg">
  <defs
     id="defs2" />
  <sodipodi:namedview
     id="base"
     pagecolor="#ffffff"
     bordercolor="#666666"
     borderopacity="1.0"
     inkscape:pageopacity="0.0"
     inkscape:pageshadow="2"
     inkscape:zoom="3.959798"
     inkscape:cx="30.134321"
     inkscape:cy="3.6977859"
     inkscape:document-units="mm"
     inkscape:current-layer="layer1"
     showgrid="false"
     inkscape:window-width="1366"
     inkscape:window-height="680"
     inkscape:window-x="0"
     inkscape:window-y="27"
     inkscape:window-maximized="1" />
  <metadata
     id="metadata5">
    <rdf:RDF>
      <cc:Work
         rdf:about="">
        <dc:format>image/svg+xml</dc:format>
        <dc:type
           rdf:resource="http://purl.org/dc/dcmitype/StillImage" />
        <dc:title></dc:title>
      </cc:Work>
    </rdf:RDF>
  </metadata>
  <g
     inkscape:label="Layer 1"
     inkscape:groupmode="layer"
     id="layer1"
     transform="translate(0,-290.38499)">
    <path
       style="fill:#000000;stroke-width:0.1;stroke-miterlimit:4;stroke-dasharray:none"
       d="m 2.0182493,296.90782 -1.83322484,-0.01 -0.008792,-1.97741 c -0.004795,-1.08758 -0.004795,-2.53267 6.594e-5,-3.21133 l 0.008792,-1.23391 1.1620535,-0.008 c 0.6391293,-0.004 2.9772492,-0.004 5.1958232,-2e-5 l 4.0337669,0.008 v 3.21155 3.21153 H 7.7255474 c -1.5681532,0 -3.0813518,0.004 -3.3626623,0.01 -0.2813125,0.004 -1.3364282,0.004 -2.3447018,-2.2e-4 z m 0.8622643,-0.19063 C 1.693953,296.32712 0.76301707,295.39593 0.36591902,294.20193 l -0.0956304,-0.28755 -0.001399,1.4493 -0.001397,1.4493 1.44930038,-6.9e-4 1.4493005,-7e-4 -0.2855765,-0.0939 z m 1.2353189,-1.82471 -0.00739,-1.9205 -1.9205011,-0.008 -1.92050303,-0.008 v 0.26043 c 0,0.86897 0.47012165,1.88658 1.18357133,2.56192 0.6712832,0.63543 1.5623306,1.0241 2.3649188,1.0316 l 0.3071943,0.002 z m 1.1830419,1.84937 c 1.7638338,-0.32991 3.2954992,-1.37449 4.2506145,-2.89886 0.1906614,-0.30428 0.4799501,-0.90494 0.5983231,-1.24226 0.191261,-0.54501 0.329374,-1.26276 0.348961,-1.8134 l 0.0086,-0.24275 -3.1746938,-0.008 -3.1746963,-0.008 -0.003,3.14146 -0.003,3.14146 H 4.534175 c 0.2886037,0 0.4788096,-0.018 0.764482,-0.0711 z m 5.2208116,-2.54665 c 0,-1.43977 -0.007,-2.61074 -0.01559,-2.60213 -0.0086,0.008 -0.04634,0.15146 -0.08382,0.31735 -0.208359,0.92211 -0.6624332,1.86361 -1.2557175,2.60368 -0.2193446,0.2736 -0.696138,0.75219 -0.9722433,0.97588 -0.7036629,0.57011 -1.5494627,0.99717 -2.423542,1.22368 l -0.3751086,0.0973 2.5630492,10e-4 2.5630492,10e-4 z m -7.881911,-2.46971 v -1.20365 l -0.2243379,0.018 c -0.290442,0.0224 -0.703551,0.15605 -0.9750847,0.31547 -0.67310742,0.39516 -1.17086318,1.19082 -1.17086318,1.87162 v 0.20291 H 1.4526311 2.637775 Z m 0.22846,1.19158 c 0,-0.012 -0.1702805,-0.18782 -0.1820895,-0.18782 -0.0034,0 -0.00112,0.045 0.0054,0.0999 0.01039,0.0885 0.02114,0.0999 0.094212,0.0999 0.045397,0 0.082543,-0.006 0.082543,-0.012 z m 1.2443364,-0.0258 c 0.00799,-0.021 0.01079,-0.15266 0.00619,-0.29273 l -0.00839,-0.25476 -0.061902,0.11429 c -0.073511,0.13568 -0.2723289,0.33215 -0.4021633,0.39745 -0.051052,0.0256 -0.092813,0.0528 -0.092813,0.0601 0,0.008 0.1224853,0.014 0.272193,0.014 0.2000567,0 0.2760555,-0.01 0.2867594,-0.038 z M 3.1232542,292.68648 V 292.4723 H 2.9059757 2.6886973 l 0.018583,0.0785 c 0.036566,0.15385 0.2399092,0.34983 0.3630019,0.34983 0.046776,0 0.052891,-0.0248 0.052891,-0.21418 z m 0.4464518,0.12668 c 0.2683107,-0.12988 0.4867441,-0.42538 0.5177431,-0.7004 l 0.014187,-0.12588 H 3.6409993 3.1803627 v 0.46062 0.46065 l 0.1259221,-0.014 c 0.069255,-0.008 0.1877841,-0.0442 0.2634152,-0.0807 z M 3.1232542,292.2153 v -0.22846 H 2.9090728 2.6948895 v 0.22846 0.22845 h 0.2141833 0.2141814 z m -2.68537259,-0.40012 c 0.25412997,-0.50945 0.74211679,-0.96354 1.25749009,-1.17017 0.086379,-0.0346 0.1827688,-0.0737 0.2141834,-0.0869 0.03257,-0.014 -0.3080934,-0.0248 -0.7924757,-0.0258 l -0.84959018,-0.002 0.001998,0.83532 c 0.001746,0.71766 0.007193,0.82119 0.0389835,0.73505 0.020321,-0.0551 0.0785664,-0.18363 0.1293988,-0.28557 z m 3.65599349,0.0218 C 4.092896,291.57174 3.909208,291.17983 3.6770235,290.94765 3.444841,290.71547 3.0529321,290.53176 2.7877025,290.5308 l -0.092813,-3.2e-4 v 0.69966 0.69967 h 0.6996626 0.6996626 l -3.396e-4,-0.0927 z m 0.028893,-0.83532 v -0.4712 l -0.4640613,10e-4 -0.4640613,0.001 0.1713395,0.0881 c 0.2323843,0.11949 0.5459666,0.44187 0.6549385,0.67353 0.046077,0.0979 0.087838,0.17804 0.092813,0.17804 0.005,0 0.00899,-0.21202 0.00899,-0.4712 z"
       id="path837"
       inkscape:connector-curvature="0" />
    <rect
       style="opacity:1;fill:none;stroke:#000000;stroke-width:0.065;stroke-miterlimit:4;stroke-dasharray:none;stroke-opacity:1"
       id="rect839"
       width="10.309244"
       height="6.3679199"
       x="0.26748922"
       y="290.5303" />
    <path
       style="opacity:1;fill:#000000;stroke:#000000;stroke-width:0.07563728;stroke-miterlimit:4;stroke-dasharray:none;stroke-opacity:1"
       id="path843"
       d="m 7.8014265,293.56514 c 0.1781208,-0.0145 0.3563264,0.002 0.5342565,0.0172 0.067175,0.008 0.1343696,0.0145 0.2015258,0.0231 0.2631736,0.0324 0.2300857,0.0334 0.5059016,0.0623 0.30347,0.0318 0.6070272,0.0499 0.9108135,0.066 0.1032161,0.003 0.2064261,0.008 0.3096471,0.0112 0.215518,0.006 0.374648,0.0112 0.589362,0.005 0.253315,-0.008 0.506572,-0.0307 0.759686,-0.0501 0.312856,-0.0257 0.625822,-0.0454 0.93882,-0.0634 0.06053,0.001 0.121291,-0.0161 0.181756,-0.008 0,0 -0.168478,0.2295 -0.168478,0.2295 v 0 c -0.05606,-0.01 -0.112474,-0.003 -0.168647,-0.006 -0.305543,9.3e-4 -0.611026,0.0145 -0.916402,0.0331 -0.250398,0.0145 -0.5009,0.0332 -0.751433,0.0374 -0.213224,0.003 -0.371939,-0.002 -0.585972,-0.01 -0.10301,-0.003 -0.2060103,-0.008 -0.3090159,-0.0128 -0.3060571,-0.0145 -0.6119721,-0.0318 -0.917849,-0.0573 -0.1722416,-0.0145 -0.3443717,-0.0333 -0.5166182,-0.0474 -0.069209,-0.006 -0.1384581,-0.01 -0.207687,-0.0145 -0.185483,-0.006 -0.3720826,-0.0178 -0.5568486,0.0215 0,0 0.1671822,-0.2375 0.1671822,-0.2375 z"
       inkscape:connector-curvature="0" />
    <path
       style="fill:none;stroke:#000000;stroke-width:0.1;stroke-linecap:butt;stroke-linejoin:miter;stroke-miterlimit:4;stroke-dasharray:none;stroke-opacity:1"
       d="m 4.1231227,296.81193 -3.546e-4,-6.28147"
       id="path845"
       inkscape:connector-curvature="0" />
    <path
       style="fill:none;stroke:#000000;stroke-width:0.1;stroke-linecap:butt;stroke-linejoin:miter;stroke-miterlimit:4;stroke-dasharray:none;stroke-opacity:1"
       d="m 4.1084425,292.97198 -3.84095328,-0.0421"
       id="path847"
       inkscape:connector-curvature="0" />
    <path
       style="fill:none;stroke:#000000;stroke-width:0.1;stroke-linecap:butt;stroke-linejoin:miter;stroke-miterlimit:4;stroke-dasharray:none;stroke-opacity:1"
       d="m 2.637775,292.92984 0.057114,-2.39936"
       id="path849"
       inkscape:connector-curvature="0" />
    <path
       style="fill:none;stroke:#000000;stroke-width:0.1;stroke-linecap:butt;stroke-linejoin:miter;stroke-miterlimit:4;stroke-dasharray:none;stroke-opacity:1"
       d="m 2.6948894,291.92981 1.4067467,0.0571"
       id="path851"
       inkscape:connector-curvature="0" />
    <path
       style="fill:none;stroke:#000000;stroke-width:0.1;stroke-linecap:butt;stroke-linejoin:miter;stroke-miterlimit:4;stroke-dasharray:none;stroke-opacity:1"
       d="m 3.1803625,292.90815 v -0.92127"
       id="path853"
       inkscape:connector-curvature="0" />
    <path
       style="fill:none;stroke:#000000;stroke-width:0.1;stroke-linecap:butt;stroke-linejoin:miter;stroke-miterlimit:4;stroke-dasharray:none;stroke-opacity:1"
       d="M 3.1232541,292.44375 H 2.6948894"
       id="path855"
       inkscape:connector-curvature="0" />
    <path
       style="fill:none;stroke:#000000;stroke-width:0.2;stroke-linecap:butt;stroke-linejoin:miter;stroke-miterlimit:4;stroke-dasharray:none;stroke-opacity:1"
       d="M 10.576733,296.89822 V 290.5303"
       id="path857"
       inkscape:connector-curvature="0" />
    <text
       xml:space="preserve"
       style="font-style:normal;font-variant:normal;font-weight:normal;font-stretch:normal;font-size:10.58333302px;line-height:1.25;font-family:'Ubuntu Mono';-inkscape-font-specification:'Ubuntu Mono';letter-spacing:0px;word-spacing:0px;fill:#000000;fill-opacity:1;stroke:none;stroke-width:0.26458332"
       x="10.984934"
       y="296.85825"
       id="text914"><tspan
         sodipodi:role="line"
         id="tspan912"
         x="10.984934"
         y="296.85825"
         style="font-size:3.52777767px;stroke-width:0.26458332">bdon</tspan></text>
  </g>
</svg>
